<?xml version="1.0" standalone="no"?>
<!DOCTYPE svg PUBLIC "-//W3C//DTD SVG 20010904//EN"
 "http://www.w3.org/TR/2001/REC-SVG-20010904/DTD/svg10.dtd">
<svg version="1.0" xmlns="http://www.w3.org/2000/svg"
 width="896.000000pt" height="896.000000pt" viewBox="0 0 896.000000 896.000000"
 preserveAspectRatio="xMidYMid meet">

<g transform="translate(0.000000,896.000000) scale(0.100000,-0.100000)"
fill="#000000" stroke="none">
<path d="M7340 8947 c0 -7 -9 -29 -20 -50 -25 -47 -25 -51 4 -94 19 -28 24
-46 21 -86 -1 -29 -8 -65 -14 -81 -11 -27 -9 -32 15 -53 37 -31 37 -95 0 -150
-14 -20 -26 -45 -26 -53 0 -16 48 -74 67 -81 10 -4 17 -35 14 -66 -1 -7 -12
-13 -25 -13 -14 0 -40 -9 -58 -19 -18 -11 -55 -23 -83 -27 -27 -3 -61 -11 -75
-17 -30 -12 -25 -11 -75 -21 -22 -4 -53 -19 -68 -34 -15 -15 -47 -34 -70 -42
-39 -15 -44 -15 -75 3 -37 22 -66 18 -105 -16 -36 -30 -37 -82 -2 -119 14 -15
25 -32 25 -37 0 -6 9 -15 20 -21 11 -6 20 -20 20 -32 0 -12 -3 -18 -6 -15 -11
11 -63 -66 -64 -92 0 -13 10 -39 22 -59 20 -33 22 -34 34 -16 7 11 17 24 21
29 5 6 19 26 31 46 17 28 31 38 59 44 24 4 39 3 41 -4 2 -6 13 -11 24 -11 28
0 98 -76 98 -106 0 -13 -5 -24 -11 -24 -13 0 -55 -42 -61 -61 -3 -8 -30 -14
-72 -17 -55 -4 -70 -1 -87 14 -29 26 -46 25 -70 -4 -17 -22 -20 -36 -15 -77 8
-74 -7 -114 -65 -170 -68 -67 -77 -87 -84 -191 -9 -115 -4 -122 95 -136 100
-13 153 -17 165 -10 13 8 57 11 205 16 81 2 125 7 128 15 2 6 10 11 18 11 8 0
14 7 14 15 0 9 7 18 15 21 9 4 15 19 15 35 0 16 4 29 9 29 5 0 12 12 16 28 4
15 9 22 12 15 2 -6 26 -17 53 -24 58 -15 106 -59 114 -106 5 -26 1 -35 -21
-52 -16 -12 -32 -24 -38 -28 -5 -5 -21 -9 -35 -11 -75 -10 -120 -22 -120 -33
0 -5 -9 -9 -20 -9 -11 0 -20 -6 -20 -13 0 -20 55 -19 112 3 26 10 54 17 61 16
22 -3 108 -57 103 -65 -3 -4 -7 -20 -10 -36 -3 -17 -25 -47 -51 -72 -41 -40
-58 -73 -37 -73 5 0 23 -14 40 -31 24 -24 32 -40 32 -68 0 -20 -4 -41 -8 -47
-13 -19 -73 -43 -135 -55 -63 -11 -117 -33 -117 -48 0 -24 31 -32 92 -25 35 4
76 7 91 7 77 -2 98 -125 27 -165 -27 -15 -44 -58 -22 -58 4 0 22 -13 40 -30
27 -25 32 -35 29 -65 -8 -69 -55 -97 -186 -110 -35 -3 -68 -8 -73 -11 -5 -4
-67 -8 -136 -9 -70 -2 -140 -6 -157 -9 -66 -10 -129 -10 -133 2 -5 15 -73 47
-157 73 -65 20 -71 25 -163 129 l-31 35 -40 -39 c-38 -37 -44 -39 -112 -42
l-71 -3 6 50 c5 36 3 49 -6 50 -28 2 -74 -3 -88 -11 -9 -5 -30 -2 -50 6 -24
11 -36 12 -38 4 -3 -7 -10 -2 -19 9 -10 15 -11 26 -3 40 5 11 10 36 10 56 0
20 5 46 11 57 13 23 28 672 19 813 -2 40 10 452 15 490 11 87 29 172 41 190 8
11 14 29 14 42 0 12 4 24 9 28 5 3 12 18 16 34 8 36 39 65 61 57 11 -4 15 -2
11 8 -6 15 19 30 34 20 16 -9 10 23 -6 36 -9 7 -14 19 -11 26 5 14 -17 37 -27
27 -4 -3 -7 0 -7 8 0 11 -2 11 -9 1 -7 -11 -11 -11 -23 2 -9 8 -18 12 -22 9
-3 -3 -14 1 -23 9 -17 15 -62 32 -114 44 -31 7 -191 14 -344 15 -66 1 -138 5
-160 9 -48 10 -181 18 -400 25 -88 3 -169 7 -180 9 -11 2 -69 7 -130 11 -139
8 -184 12 -309 25 -56 5 -128 13 -161 16 -33 3 -118 11 -190 19 -71 8 -182 17
-245 21 -63 4 -126 8 -140 9 -14 1 -90 5 -170 9 -154 8 -182 10 -272 27 -75
13 -129 17 -274 19 -67 1 -141 6 -165 10 -165 30 -199 34 -449 45 -74 4 -169
11 -210 16 -127 18 -133 18 -199 24 -35 3 -134 10 -220 15 -86 6 -174 14 -196
19 -22 5 -77 12 -122 16 -46 3 -92 8 -102 10 -11 2 -46 6 -78 10 -32 3 -67 8
-78 11 -11 2 -45 6 -75 9 -66 7 -98 11 -125 18 -28 7 -92 16 -150 22 -27 3
-57 8 -65 10 -8 3 -31 7 -50 9 -162 21 -211 33 -308 77 -34 16 -69 29 -77 29
-8 0 -15 5 -15 10 0 6 -3 9 -7 8 -5 -1 -21 5 -38 12 -17 7 -76 14 -135 16 -58
1 -112 4 -120 7 -8 3 -25 7 -37 10 l-23 5 0 -1998 0 -1999 107 -4 c60 -2 306
-3 549 -2 479 3 489 4 477 55 -3 14 -16 50 -29 81 -22 54 -24 99 -5 124 18 23
20 67 6 120 -19 73 -37 127 -48 142 -5 7 1 26 17 50 23 35 26 52 35 213 5 96
8 198 5 225 -2 28 -5 169 -7 315 -1 146 -6 270 -10 276 -4 6 -7 313 -7 683 -1
742 -4 710 64 746 34 19 41 19 398 -3 200 -13 480 -29 623 -38 287 -16 313
-22 349 -84 19 -32 20 -65 20 -1274 1 -697 -3 -1324 -9 -1430 -7 -129 -7 -196
0 -210 9 -18 21 -21 96 -24 70 -2 89 0 99 14 17 19 15 179 -4 474 -9 135 -14
514 -15 1240 -2 1028 -1 1046 18 1077 38 61 59 66 269 54 314 -18 332 -18 383
15 24 16 50 35 57 41 7 7 18 13 24 13 5 0 8 6 6 13 -3 6 3 20 12 30 17 17 17
17 12 -9 -3 -16 1 -30 9 -35 11 -7 10 -10 -6 -15 -20 -5 -75 -73 -75 -92 0 -5
-10 -12 -22 -16 -14 -3 -19 -9 -13 -13 23 -17 1 -133 -25 -133 -5 0 -10 16
-10 35 0 46 -16 45 -25 -1 -3 -20 -12 -45 -18 -57 -9 -15 -9 -21 1 -24 6 -3
12 -9 12 -15 0 -6 -6 -6 -15 2 -22 18 -45 5 -45 -28 0 -15 -5 -33 -11 -39 -6
-6 -12 -29 -13 -51 -4 -49 -13 -65 -33 -58 -12 5 -13 0 -8 -27 4 -17 14 -39
21 -48 8 -9 12 -24 8 -33 -3 -9 -1 -16 6 -16 15 0 -8 -23 -32 -33 -11 -4 -20
-22 -24 -47 -4 -23 -17 -57 -30 -76 -14 -19 -29 -55 -34 -79 -15 -69 -20 -350
-8 -450 6 -49 11 -107 10 -127 -1 -21 3 -38 8 -38 6 0 10 -24 10 -53 0 -46 6
-88 24 -182 24 -121 85 -298 108 -316 8 -5 22 -124 21 -168 -1 -13 -8 -28 -17
-33 -19 -11 -42 -56 -40 -78 1 -8 2 -22 3 -30 1 -9 9 -2 18 15 8 17 24 40 35
51 17 20 19 36 18 185 -1 90 -1 172 -1 182 2 32 2 61 -2 207 -4 119 -1 156 14
212 10 37 17 81 15 98 -2 17 0 33 5 36 12 7 11 61 -1 69 -12 7 -9 115 3 115 4
0 7 16 7 36 0 19 -4 33 -9 30 -19 -12 -19 37 -1 57 11 11 17 24 14 28 -2 4 0
10 6 14 5 3 10 19 10 34 0 15 4 41 9 57 67 215 61 203 102 221 21 10 40 26 42
36 3 9 11 17 18 17 10 0 10 -3 1 -12 -25 -25 -11 -26 24 -3 20 14 55 30 78 35
51 13 146 58 146 70 0 5 20 12 45 16 25 3 42 10 39 15 -5 9 9 13 34 10 7 -1
15 5 18 14 3 8 12 15 20 15 8 0 14 5 14 10 0 10 41 7 59 -4 5 -4 12 -2 16 4 4
6 11 8 16 4 6 -3 20 5 32 18 18 19 31 23 70 21 31 -1 47 2 47 10 0 8 3 9 8 1
4 -6 16 -14 27 -18 11 -4 16 -4 12 0 -4 4 -2 13 4 20 9 11 17 11 46 -1 42 -18
46 -18 38 -5 -9 14 8 13 23 -2 9 -9 12 -9 12 0 0 10 5 10 20 2 15 -8 20 -8 20
2 0 7 8 1 18 -14 9 -16 20 -28 25 -28 4 0 5 4 2 10 -3 6 1 7 9 4 9 -3 16 -1
16 5 0 6 -4 11 -10 11 -5 0 -10 5 -10 10 0 7 6 7 18 2 9 -5 23 -7 30 -5 6 3
12 0 12 -6 0 -6 -6 -11 -12 -11 -15 -1 20 -23 40 -26 8 -2 22 -10 33 -20 11
-10 19 -12 19 -6 0 20 39 13 50 -8 6 -11 19 -20 28 -20 10 0 22 -4 28 -9 23
-24 103 -56 137 -56 27 0 39 -4 43 -18 5 -17 50 -42 68 -38 5 1 6 -5 3 -13 -4
-10 -1 -13 9 -9 10 4 14 -2 14 -20 0 -14 3 -33 6 -42 6 -13 9 -14 16 -3 7 9 7
5 2 -12 -8 -29 -9 -72 -1 -114 3 -18 -1 -35 -9 -43 -9 -9 -11 -25 -7 -45 4
-22 3 -29 -5 -24 -8 5 -8 -2 -1 -24 8 -23 14 -28 23 -20 9 7 19 3 34 -15 25
-28 28 -40 10 -29 -9 6 -9 3 1 -9 7 -9 11 -24 7 -32 -3 -9 -2 -13 3 -10 5 3
13 0 17 -6 3 -6 1 -15 -7 -19 -10 -7 -10 -12 1 -26 14 -15 15 -15 21 7 7 23 7
23 8 2 1 -16 6 -21 20 -18 14 3 23 -7 36 -41 16 -41 18 -44 31 -27 13 17 13
17 14 -4 0 -12 -4 -25 -10 -28 -5 -3 -10 -14 -10 -23 0 -23 -39 -47 -53 -33
-16 16 -27 14 -27 -5 0 -10 -6 -14 -15 -11 -8 4 -17 2 -21 -4 -3 -6 -12 -8
-20 -5 -8 3 -17 -1 -20 -9 -4 -10 -19 -14 -43 -13 -21 0 -43 -2 -49 -6 -6 -3
-16 2 -21 13 -13 24 -68 23 -86 -2 -7 -9 -22 -17 -34 -17 -12 0 -43 -12 -69
-27 -26 -15 -49 -28 -52 -28 -3 0 -4 -3 -2 -7 7 -23 6 -33 -4 -31 -7 1 -15 -9
-18 -23 -5 -19 -11 -24 -25 -19 -21 6 -38 -10 -21 -20 14 -9 12 -35 -5 -69
-10 -19 -12 -33 -5 -41 5 -6 10 -43 10 -81 0 -97 0 -103 10 -109 5 -3 4 -19
-2 -36 -6 -17 -8 -50 -5 -74 4 -29 1 -56 -8 -79 -10 -22 -15 -64 -14 -108 2
-74 11 -107 35 -121 8 -4 14 -17 14 -27 0 -11 5 -20 10 -20 6 0 10 -13 10 -29
0 -17 5 -33 10 -36 6 -3 10 -14 10 -23 0 -15 -2 -15 -10 -2 -13 19 -13 8 0
-25 5 -14 14 -24 19 -21 5 4 7 -3 4 -14 -3 -12 -11 -19 -17 -17 -12 4 -46 -34
-46 -52 0 -19 -101 -91 -127 -91 -16 0 -27 -7 -30 -20 -7 -26 -35 -25 -59 1
-24 28 -91 58 -126 59 -15 0 -39 -10 -54 -23 l-27 -23 50 -32 c55 -35 78 -39
107 -17 31 23 46 18 63 -22 8 -21 19 -41 24 -44 8 -4 29 -102 29 -133 0 -4 11
-6 25 -4 13 3 26 1 28 -5 3 -10 55 18 69 37 8 12 68 -12 68 -28 0 -6 9 -22 20
-36 11 -14 20 -28 20 -32 0 -3 -36 -20 -80 -37 -76 -30 -86 -31 -173 -25 -77
5 -104 3 -168 -15 -124 -35 -170 -28 -231 33 -48 48 -93 51 -103 6 -4 -17 -18
-44 -32 -60 -14 -17 -22 -37 -19 -45 3 -8 1 -15 -4 -15 -6 0 -5 -8 2 -19 10
-16 9 -23 -6 -40 -10 -11 -24 -17 -32 -14 -10 4 -12 0 -8 -11 4 -10 0 -18 -10
-22 -21 -8 -20 -20 0 -28 20 -8 44 10 44 33 0 21 52 61 78 61 11 0 37 16 58
35 21 19 40 35 43 35 4 0 53 -9 111 -20 60 -11 150 -20 210 -21 89 -1 306 -13
348 -20 14 -3 17 -19 3 -19 -5 0 -13 -9 -16 -20 -3 -11 -13 -20 -21 -20 -8 0
-14 -4 -14 -10 0 -5 -10 -10 -21 -10 -18 0 -21 -5 -17 -31 4 -26 1 -32 -21
-41 -14 -5 -44 -12 -66 -15 -22 -2 -44 -8 -49 -13 -10 -10 2 -32 14 -25 5 3
11 1 15 -5 3 -5 -1 -10 -9 -10 -9 0 -16 -4 -16 -10 0 -5 -9 -10 -20 -10 -11 0
-20 -5 -20 -11 0 -5 4 -8 8 -5 4 2 7 -7 7 -22 -2 -39 22 -64 47 -51 16 9 20 7
25 -11 4 -13 16 -23 34 -27 24 -4 29 -11 29 -34 0 -21 7 -32 24 -40 14 -7 27
-22 31 -36 7 -29 25 -21 25 13 0 13 5 24 10 24 6 0 10 -5 10 -11 0 -6 9 -9 20
-6 15 4 20 0 20 -14 0 -21 -10 -25 -26 -9 -6 6 -9 0 -9 -15 0 -14 3 -25 8 -25
4 0 7 -9 7 -19 0 -11 6 -21 13 -24 9 -3 9 -9 -1 -26 -7 -12 -10 -27 -6 -33 5
-7 3 -8 -5 -4 -7 5 -21 0 -32 -10 -11 -9 -29 -18 -42 -20 -12 -1 -22 -3 -22
-4 0 -1 -9 -3 -20 -5 -10 -2 -28 -8 -40 -14 -11 -6 -31 -11 -44 -13 -22 -3
-29 -11 -51 -58 -4 -8 -10 -14 -14 -12 -4 1 -14 -5 -23 -13 -20 -21 -61 -12
-86 18 -11 14 -15 16 -11 6 3 -10 1 -20 -5 -24 -6 -3 -11 2 -11 12 -1 17 -1
17 -14 0 -9 -12 -16 -14 -21 -7 -3 5 -11 8 -16 5 -13 -9 -11 9 3 23 9 9 8 12
-5 12 -10 0 -22 -10 -28 -22 -8 -20 -9 -18 -5 10 7 45 -1 40 -14 -8 -6 -22
-15 -40 -20 -40 -19 0 -40 13 -34 21 3 5 -1 6 -9 3 -8 -3 -21 6 -31 20 -9 15
-21 26 -28 26 -6 0 -19 9 -29 21 -10 12 -23 18 -30 14 -6 -4 -15 -1 -20 6 -4
7 -12 10 -16 5 -4 -5 -2 -11 5 -13 6 -3 12 -13 12 -24 0 -11 10 -23 23 -28 12
-5 38 -25 57 -44 19 -18 54 -42 77 -52 24 -11 43 -24 43 -31 0 -7 32 -23 70
-35 49 -16 69 -27 65 -36 -2 -8 6 -18 20 -23 18 -7 23 -14 18 -26 -5 -13 -3
-15 7 -9 10 6 12 0 7 -28 -4 -28 -2 -39 11 -47 16 -9 16 -9 0 -10 -10 0 -18
-4 -18 -10 0 -10 7 -12 40 -14 8 -1 17 -12 18 -25 2 -15 0 -21 -7 -17 -6 4
-11 0 -11 -8 0 -8 5 -18 10 -21 6 -4 8 -11 4 -16 -3 -5 -10 -6 -16 -3 -7 4 -8
2 -4 -4 4 -7 14 -12 23 -12 11 0 14 -6 9 -25 -5 -20 -3 -25 13 -25 25 0 39
-20 14 -20 -16 -1 -16 -2 3 -18 16 -14 19 -23 13 -40 -7 -19 -5 -22 16 -22 16
0 25 -6 25 -15 0 -8 8 -15 18 -16 13 0 13 -2 -4 -9 -50 -20 -31 -39 34 -35 21
1 32 -3 32 -12 0 -7 -7 -13 -15 -13 -9 0 -15 -9 -15 -22 0 -25 -14 -52 -27
-54 -13 -1 -59 -23 -50 -23 4 -1 0 -13 -9 -27 -15 -22 -15 -27 -3 -34 7 -5 14
-15 15 -22 3 -34 5 -38 23 -38 11 0 22 -8 24 -17 4 -17 5 -17 6 0 0 9 8 17 17
17 11 0 14 -5 10 -16 -4 -11 -2 -15 7 -11 10 4 13 -2 9 -19 -2 -13 -8 -27 -13
-30 -5 -3 -9 -19 -9 -36 0 -23 4 -29 16 -24 9 3 25 6 35 6 16 0 19 5 14 20 -4
11 -2 20 4 20 6 0 11 -7 11 -15 0 -12 4 -11 20 5 11 11 26 20 33 20 6 -1 1
-10 -12 -20 -36 -30 -8 -24 46 10 39 25 49 28 51 15 4 -19 21 -20 28 -1 9 22
35 29 32 8 -2 -11 3 -17 15 -16 21 2 22 -10 1 -41 -18 -27 -13 -31 17 -14 19
10 20 9 9 -11 -9 -16 -9 -25 0 -36 7 -7 10 -20 6 -29 -7 -18 29 -41 39 -24 4
6 13 8 20 5 7 -2 18 1 24 7 8 8 11 7 11 -3 1 -13 3 -12 13 1 7 8 19 18 28 21
29 11 310 547 362 691 16 42 32 75 37 72 11 -7 48 113 53 176 6 62 -9 152 -38
229 -38 100 -31 132 13 64 29 -44 95 -242 117 -349 26 -122 32 -355 12 -435
-20 -79 -23 -185 -14 -530 10 -352 9 -425 -9 -690 -14 -221 -95 -1138 -114
-1295 -12 -103 -60 -601 -60 -626 0 -19 36 -19 1765 -19 l1765 0 0 4480 0
4480 -810 0 c-646 0 -810 -3 -810 -13z m-6748 -428 c61 -13 135 -48 160 -75
27 -31 38 -93 38 -219 0 -169 -15 -297 -41 -348 -85 -169 -189 -225 -389 -214
-121 7 -161 20 -204 65 -25 27 -27 34 -18 64 5 18 9 76 8 128 -1 52 2 100 6
106 11 14 11 41 2 150 -5 64 -3 93 5 98 13 9 15 69 2 113 -5 17 -6 34 -3 38 3
3 7 13 8 23 6 38 87 66 205 71 35 1 66 5 68 7 8 8 101 4 153 -7z m6748 -484
c4 3 10 -3 13 -14 3 -14 -1 -17 -22 -15 -14 1 -29 -3 -33 -9 -5 -7 -8 0 -8 17
0 29 0 29 21 10 22 -19 22 -19 15 6 -3 14 -3 19 0 12 3 -6 9 -10 14 -7z
m-3080 -5 c0 -5 -2 -10 -4 -10 -3 0 -8 5 -11 10 -3 6 -1 10 4 10 6 0 11 -4 11
-10z m3013 -14 c4 -10 1 -13 -8 -9 -8 3 -12 9 -9 14 7 12 11 11 17 -5z m-243
-31 c19 -23 3 -84 -32 -117 -16 -15 -36 -28 -44 -28 -7 0 -17 -6 -21 -14 -4
-7 -18 -18 -31 -25 -29 -15 -36 1 -30 71 5 42 11 56 42 84 21 19 41 32 46 29
5 -3 11 -1 15 5 9 15 41 12 55 -5z m-3037 -50 c-3 -9 -8 -14 -10 -11 -3 3 -2
9 2 15 9 16 15 13 8 -4z m-439 -137 c-19 -34 -27 -39 -35 -26 -13 20 -10 31 6
24 8 -3 15 -1 15 4 0 6 5 10 11 10 5 0 7 -6 3 -12z m3796 -42 c0 -8 5 -18 12
-22 7 -5 8 -3 3 6 -5 8 -3 11 4 9 23 -8 14 -24 -25 -44 -42 -22 -94 -31 -94
-15 0 5 -7 7 -15 4 -19 -8 -19 11 0 28 34 30 43 36 66 41 43 8 49 7 49 -7z
m38 -162 c12 -3 22 -11 22 -18 0 -8 7 -16 15 -20 8 -3 15 -13 15 -21 0 -10 -5
-13 -12 -9 -8 5 -9 2 -5 -9 8 -22 -2 -47 -19 -47 -8 0 -14 -4 -14 -8 0 -5 -40
-8 -90 -8 -49 1 -90 -2 -90 -5 0 -4 -9 -9 -20 -12 -21 -5 -56 20 -61 43 -4 18
10 60 19 61 41 5 69 12 79 21 32 26 107 41 161 32z m24 -288 c9 -13 9 -45 0
-68 -10 -24 -74 -64 -94 -60 -20 4 -24 42 -8 58 6 6 13 24 16 40 9 53 12 56
46 49 18 -4 36 -13 40 -19z m-7316 -271 c-13 -20 -20 -23 -35 -15 -29 15 -33
38 -10 61 l21 21 21 -20 c19 -20 19 -22 3 -47z m7882 -309 c3 -13 -4 -15 -45
-10 -53 7 -97 29 -88 45 4 5 10 7 15 4 5 -3 11 -1 15 5 9 14 99 -24 103 -44z
m44 -10 c7 4 8 2 4 -5 -9 -13 -26 -5 -25 12 0 9 2 8 6 -1 2 -6 10 -9 15 -6z
m-2532 -297 c-7 -11 -14 -18 -17 -15 -3 3 -1 12 6 20 9 11 9 15 0 18 -8 3 -9
9 -4 17 14 23 28 -15 15 -40z m-296 -14 c-4 -8 -8 -15 -10 -15 -2 0 -4 7 -4
15 0 8 4 15 10 15 5 0 7 -7 4 -15z m356 -15 c0 -19 5 -29 13 -27 14 2 11 -46
-5 -77 -11 -19 -11 -19 -30 4 -10 13 -17 29 -14 37 3 7 2 13 -2 13 -5 0 -8 16
-9 35 -1 19 3 35 8 35 4 0 6 -7 2 -16 -4 -12 -2 -15 8 -12 8 3 13 12 11 22 -2
9 2 16 8 16 5 0 10 -13 10 -30z m50 -90 c5 8 10 2 15 -18 3 -17 13 -36 21 -43
8 -6 14 -18 14 -26 0 -7 6 -24 14 -36 16 -26 22 -63 41 -252 8 -77 19 -174 25
-215 9 -68 11 -239 2 -212 -15 45 -28 -45 -24 -155 2 -33 -2 -43 -13 -43 -18
0 -19 -5 -4 -32 8 -16 8 -19 -1 -13 -7 4 -17 1 -22 -6 -7 -11 -11 -11 -15 -1
-14 34 -61 58 -48 25 5 -14 4 -15 -6 -6 -9 9 -10 18 -1 35 6 13 11 17 11 11 1
-7 6 -13 12 -13 12 0 8 42 -6 52 -14 10 -17 80 -3 72 6 -4 8 -3 4 4 -3 6 -2
21 3 34 6 13 13 44 16 70 3 26 12 54 20 62 8 7 10 17 5 22 -5 5 -10 52 -12
104 -2 58 -8 100 -15 108 -7 7 -13 21 -13 30 0 10 -6 26 -14 37 -11 16 -30
110 -28 135 0 3 -4 10 -9 16 -5 6 -11 30 -14 55 -3 24 -11 47 -18 51 -8 5 -4
8 11 8 19 0 22 4 17 25 -3 14 -7 36 -10 50 -6 27 26 88 33 65 4 -10 6 -10 12
0z m-405 -195 c0 -17 -8 -20 -54 -23 -29 -2 -61 0 -70 3 -31 12 20 40 75 40
42 0 49 -3 49 -20z m-40 -66 c11 -16 2 -20 -66 -25 -35 -2 -80 -7 -99 -10 -39
-6 -34 5 15 30 34 18 140 22 150 5z m-155 -178 c0 -7 -63 9 -77 20 -20 17 -16
27 19 49 l32 19 13 -42 c7 -23 13 -44 13 -46z m993 57 c33 -17 67 -60 66 -83
0 -19 -1 -19 -12 -1 -29 45 -60 76 -78 76 -10 0 -19 5 -19 10 0 13 16 13 43
-2z m1437 -16 c15 -12 24 -33 27 -62 4 -39 1 -48 -20 -68 -41 -38 -93 -51
-186 -47 -125 7 -214 -19 -166 -48 36 -21 88 -23 159 -5 102 26 130 24 170
-14 60 -58 55 -131 -12 -167 -23 -12 -207 -15 -369 -6 -45 2 -84 1 -87 -3 -6
-11 -81 -15 -117 -7 -16 4 -29 13 -29 21 0 23 31 94 42 94 5 0 14 5 21 11 7 5
34 25 60 44 l48 33 -31 18 c-17 10 -36 31 -42 45 -7 15 -17 25 -22 23 -6 -2
-19 9 -28 25 -18 33 -13 75 8 67 7 -3 16 -1 19 4 4 6 35 10 70 10 35 0 90 8
123 19 38 12 96 19 158 20 54 1 101 4 103 7 12 11 81 2 101 -14z m-2508 -64
c-7 -7 -12 -8 -12 -2 0 14 12 26 19 19 2 -3 -1 -11 -7 -17z m88 -2 c14 -3 16
-8 12 -36 -1 -7 -13 -5 -29 3 -16 8 -33 12 -40 10 -14 -5 -26 14 -17 28 3 6
17 8 33 4 14 -4 33 -8 41 -9z m336 -240 c20 -8 48 -74 37 -89 -6 -6 -13 -21
-15 -32 -3 -11 -9 -29 -13 -40 -5 -16 -5 -17 4 -5 9 12 11 11 11 -9 0 -16 4
-21 15 -18 17 7 30 -9 15 -18 -6 -4 -10 -21 -8 -39 2 -35 -25 -85 -37 -67 -13
21 -27 11 -21 -15 5 -17 3 -23 -4 -19 -5 3 -10 -1 -10 -9 0 -9 -6 -16 -14 -16
-8 0 -17 -6 -19 -12 -3 -8 -6 -6 -6 5 -1 11 -9 17 -26 17 -29 0 -32 -8 -8 -25
16 -12 16 -14 0 -29 -9 -10 -17 -13 -17 -7 0 6 -5 11 -11 11 -6 0 -8 -7 -5
-16 4 -11 0 -14 -17 -12 -12 2 -28 9 -35 16 -15 13 -42 16 -42 4 0 -4 7 -17
15 -30 14 -20 14 -21 0 -16 -8 3 -15 12 -15 20 0 8 -7 14 -15 14 -13 0 -20 19
-16 44 1 5 -5 6 -14 2 -9 -3 -13 -2 -10 4 4 6 3 20 0 31 -6 17 -9 19 -16 8 -7
-11 -9 -10 -9 4 0 9 -4 17 -10 17 -5 0 -7 7 -4 15 4 10 0 15 -11 15 -12 0 -16
6 -12 20 3 11 0 18 -7 17 -6 -1 -10 6 -8 15 2 10 -2 27 -8 39 -9 16 -8 24 4
38 14 16 14 23 1 76 -16 60 -14 92 5 80 6 -4 16 -3 23 2 18 14 78 8 87 -7 7
-11 11 -11 24 -1 13 11 16 11 16 0 0 -12 2 -12 9 0 5 7 14 10 20 7 6 -4 11 -1
12 6 0 9 2 9 5 1 4 -9 14 -9 41 1 33 11 92 12 119 2z m766 -90 c33 -8 39 -26
48 -141 11 -146 -2 -310 -27 -358 -19 -38 -59 -78 -68 -69 -3 4 -4 -5 -2 -19
3 -14 1 -32 -4 -40 -7 -11 -9 -9 -9 9 0 12 -5 22 -11 22 -5 0 -7 -5 -3 -11 5
-8 1 -8 -14 0 -29 16 -34 14 -31 -11 2 -22 -16 -78 -25 -78 -3 0 -11 14 -20
30 -8 17 -10 30 -5 30 5 0 4 9 -3 20 -8 13 -16 16 -22 10 -17 -17 -32 -11 -33
12 -1 12 12 37 28 56 38 43 51 76 48 122 -2 25 3 42 18 57 15 15 24 48 37 139
40 275 36 257 55 241 9 -8 28 -17 43 -21z m898 -97 c25 1 110 2 190 4 127 2
146 1 162 -15 25 -25 24 -52 -2 -45 -11 3 -20 1 -20 -4 0 -4 -7 -6 -15 -3 -8
4 -15 1 -15 -5 0 -6 -6 -11 -14 -11 -17 0 -51 -17 -96 -50 -19 -14 -66 -31
-109 -40 -82 -17 -101 -34 -47 -44 20 -4 40 -15 46 -26 7 -12 21 -20 38 -20
44 0 55 -14 56 -69 1 -79 -43 -104 -129 -73 -22 8 -67 16 -100 18 -98 5 -119
15 -126 57 -5 29 -2 40 15 55 25 21 90 52 111 52 8 0 15 7 15 15 0 9 -10 15
-26 15 -14 0 -37 9 -51 20 -14 11 -36 20 -48 20 -27 0 -58 62 -53 106 3 25 9
31 48 41 25 6 63 9 85 6 22 -2 60 -4 85 -4z m-1275 -29 c-3 -5 -12 -10 -18
-10 -7 0 -6 4 3 10 19 12 23 12 15 0z m-545 -250 c0 -5 -4 -10 -10 -10 -5 0
-10 5 -10 10 0 6 5 10 10 10 6 0 10 -4 10 -10z m40 6 c0 -3 -4 -8 -10 -11 -5
-3 -10 -1 -10 4 0 6 5 11 10 11 6 0 10 -2 10 -4z m2015 -223 c36 -21 65 -40
65 -43 0 -3 -9 -11 -20 -17 -17 -11 -18 -10 -13 5 4 13 3 14 -6 6 -12 -11 -17
-39 -10 -63 5 -19 -48 -31 -123 -29 -34 1 -63 -4 -72 -12 -32 -26 -196 10
-196 43 0 4 -7 7 -15 7 -19 0 -33 27 -27 55 6 31 47 47 130 50 37 2 83 10 102
18 60 28 113 22 185 -20z m-647 -360 c2 -7 -4 -13 -13 -13 -10 0 -14 -5 -10
-12 4 -7 0 -4 -9 6 -8 10 -13 23 -10 28 8 12 36 6 42 -9z m362 -23 c0 -5 -7
-10 -16 -10 -8 0 -12 5 -9 10 3 6 10 10 16 10 5 0 9 -4 9 -10z m913 -5 c8 -19
-8 -28 -33 -20 -16 5 -17 9 -7 20 16 19 33 19 40 0z m-183 -5 c0 -5 -12 -10
-27 -10 -22 0 -25 2 -13 10 20 13 40 13 40 0z m1020 -16 c0 -8 -9 -14 -20 -14
-18 0 -19 3 -10 20 12 22 30 18 30 -6z m-2208 -89 c29 -39 -14 -87 -69 -78
-54 9 -53 74 1 97 31 13 48 8 68 -19z m-990 -146 c-1 -101 -18 -179 -38 -179
-8 0 3 281 12 305 15 38 27 -20 26 -126z m2102 128 c17 -13 17 -14 1 -30 -12
-13 -26 -16 -48 -12 -59 11 -72 13 -79 14 -4 1 -5 8 -2 15 4 9 24 16 52 19 26
2 50 4 53 5 3 1 13 -4 23 -11z m-730 -96 c4 -5 4 -15 1 -23 -8 -19 -189 -22
-205 -3 -7 8 -9 19 -5 25 8 12 202 14 209 1z m1017 -154 c-1 -12 -15 -9 -19 4
-3 6 1 10 8 8 6 -3 11 -8 11 -12z m125 -9 c-22 -12 -57 -1 -37 11 7 5 22 6 33
3 18 -4 19 -6 4 -14z m-3215 -31 c-8 -8 -11 -7 -11 4 0 20 13 34 18 19 3 -7
-1 -17 -7 -23z m-11 -41 c0 -2 -7 -6 -15 -10 -8 -3 -15 -1 -15 4 0 6 7 10 15
10 8 0 15 -2 15 -4z m1708 -98 c14 -14 16 -68 3 -68 -5 0 -16 -3 -24 -6 -21
-8 -51 39 -42 66 7 22 44 27 63 8z m362 -67 c0 -5 -7 -12 -16 -15 -22 -9 -24
-8 -24 9 0 8 9 15 20 15 11 0 20 -4 20 -9z m40 -7 c0 -2 -7 -4 -15 -4 -8 0
-15 4 -15 10 0 5 7 7 15 4 8 -4 15 -8 15 -10z m188 -1 c-4 -22 -22 -20 -26 1
-2 10 3 16 13 16 10 0 15 -7 13 -17z m724 -4 c17 -9 18 -13 7 -20 -12 -8 -12
-11 1 -19 11 -7 12 -12 3 -21 -18 -18 -62 -2 -69 26 -11 42 14 57 58 34z m292
-59 c7 -7 3 -10 -11 -10 -30 0 -54 10 -48 20 7 11 45 4 59 -10z m-3619 -380
c3 -5 1 -10 -4 -10 -6 0 -11 5 -11 10 0 6 2 10 4 10 3 0 8 -4 11 -10z m3961
-92 c4 -7 3 -8 -4 -4 -7 4 -12 3 -12 -2 0 -6 -9 -8 -20 -5 -11 3 -20 9 -20 14
0 13 48 11 56 -3z m-151 -148 c3 -5 1 -10 -4 -10 -6 0 -11 5 -11 10 0 6 2 10
4 10 3 0 8 -4 11 -10z m-380 -171 c10 -14 1 -21 -19 -13 -9 3 -13 10 -10 15 7
12 21 11 29 -2z m575 -1359 c30 -6 -13 -8 -129 -7 -140 2 -175 5 -179 16 -4
12 16 13 129 7 74 -5 154 -12 179 -16z"/>
<path d="M5547 6342 c-10 -10 -17 -27 -16 -38 0 -14 2 -15 6 -4 4 8 12 21 20
28 12 12 18 32 10 32 -2 0 -11 -8 -20 -18z"/>
<path d="M5575 6270 c-3 -5 -1 -10 4 -10 6 0 11 5 11 10 0 6 -2 10 -4 10 -3 0
-8 -4 -11 -10z"/>
<path d="M5657 5303 c-10 -9 -8 -43 2 -43 5 0 11 11 13 25 5 24 -2 32 -15 18z"/>
<path d="M3407 7662 c-19 -21 -22 -32 -8 -32 12 0 41 29 41 41 0 15 -16 10
-33 -9z"/>
<path d="M3346 7564 c-4 -9 -4 -19 -1 -22 2 -3 7 3 11 12 4 9 4 19 1 22 -2 3
-7 -3 -11 -12z"/>
<path d="M6972 6858 c-38 -10 -41 -23 -7 -32 21 -5 85 16 85 28 0 9 -48 11
-78 4z"/>
<path d="M6880 6839 c0 -5 5 -7 10 -4 6 3 10 8 10 11 0 2 -4 4 -10 4 -5 0 -10
-5 -10 -11z"/>
<path d="M4930 6821 c0 -14 18 -23 31 -15 8 4 7 9 -2 15 -18 11 -29 11 -29 0z"/>
<path d="M7110 6670 c-26 -14 -68 -19 -168 -23 -115 -4 -135 -7 -147 -23 -20
-26 -18 -61 3 -73 26 -14 147 -8 167 9 29 24 87 42 145 45 59 2 151 33 157 52
5 13 -58 34 -97 32 -14 -1 -41 -10 -60 -19z"/>
<path d="M4977 6533 c-4 -3 -7 -11 -7 -17 0 -6 5 -5 12 2 6 6 9 14 7 17 -3 3
-9 2 -12 -2z"/>
<path d="M6958 6388 c-21 -10 -38 -21 -38 -24 0 -8 114 6 124 16 13 13 -3 30
-27 28 -12 -1 -39 -10 -59 -20z"/>
<path d="M3780 6261 c-28 -13 -34 -21 -32 -40 3 -19 0 -22 -13 -18 -9 4 -18 1
-21 -8 -4 -8 -14 -15 -23 -15 -18 -1 -51 -23 -51 -35 0 -4 11 -5 25 -3 14 3
25 1 25 -3 0 -5 44 -8 98 -7 80 3 104 -1 139 -17 69 -33 58 -50 -49 -75 -145
-34 -234 -85 -283 -163 -33 -51 -5 -41 49 19 64 71 146 115 226 122 49 4 53 3
42 -11 -7 -9 -28 -19 -45 -22 -18 -4 -53 -20 -80 -36 -26 -16 -50 -29 -53 -29
-10 0 -110 -79 -139 -110 l-30 -32 45 6 c25 3 62 8 83 11 20 3 37 2 37 -3 0
-6 33 -8 83 -4 9 1 17 7 17 14 0 6 -3 9 -6 5 -8 -7 -64 20 -64 31 0 5 9 18 21
30 21 23 39 21 39 -4 0 -26 47 -64 80 -64 16 0 30 -5 30 -11 0 -6 -6 -9 -14
-6 -8 3 -17 -1 -20 -9 -8 -20 24 -18 40 4 13 16 13 16 14 -1 0 -10 5 -15 10
-12 6 3 10 2 10 -3 0 -5 -15 -17 -32 -26 -36 -19 -95 -60 -116 -80 -11 -10 -3
-12 40 -10 50 3 116 23 162 49 94 52 109 73 87 121 -14 31 -14 37 -1 29 6 -4
18 -1 26 6 8 6 17 9 21 6 3 -3 19 1 35 9 21 11 28 20 23 32 -4 9 -9 23 -12 30
-3 7 3 12 16 12 11 0 25 9 31 20 8 15 6 24 -10 40 -11 11 -27 20 -35 20 -8 0
-15 5 -15 10 0 6 9 10 20 10 11 0 20 4 20 9 0 4 12 25 26 46 31 47 23 74 -30
99 -20 9 -36 21 -36 25 0 12 -57 34 -69 27 -5 -4 -12 -2 -16 3 -6 10 -92 27
-110 22 -12 -3 -20 -3 -110 3 -52 3 -79 0 -105 -13z m25 -41 c18 -8 17 -9 -7
-9 -16 -1 -28 4 -28 9 0 12 8 12 35 0z"/>
<path d="M3650 6210 c-8 -5 -10 -10 -5 -10 6 0 17 5 25 10 8 5 11 10 5 10 -5
0 -17 -5 -25 -10z"/>
<path d="M3030 5714 c0 -27 23 -108 34 -120 8 -8 16 -2 28 25 24 50 23 56 -15
85 -39 30 -47 32 -47 10z"/>
<path d="M1358 4993 c-26 -4 -41 -23 -18 -23 6 0 10 -7 10 -15 0 -7 8 -19 18
-24 9 -6 11 -11 5 -11 -7 0 -13 -7 -13 -15 0 -8 -4 -15 -10 -15 -5 0 -10 -4
-10 -9 0 -5 26 -8 58 -7 l57 1 0 60 0 60 -35 1 c-19 0 -47 -1 -62 -3z"/>
<path d="M3381 4983 c-1 -19 -53 -74 -80 -85 -14 -6 -21 -12 -14 -15 16 -6 63
20 89 49 16 16 19 29 14 43 -5 11 -9 15 -9 8z"/>
<path d="M3907 4977 c-2 -7 -12 -12 -23 -12 -11 0 -19 -7 -19 -16 0 -9 -5 -23
-11 -30 -6 -8 -14 -21 -18 -29 -17 -38 -35 -63 -55 -76 -31 -22 -26 -48 10
-61 25 -10 30 -17 26 -33 -5 -21 11 -28 18 -7 5 12 13 54 14 73 1 17 77 127
105 153 14 14 26 30 26 37 0 15 -68 16 -73 1z"/>
<path d="M3275 4709 c-16 -5 -68 -6 -115 -3 -47 3 -98 1 -115 -4 -30 -8 -30
-9 -29 -78 5 -288 -1 -809 -9 -822 -5 -7 -6 -35 -2 -62 5 -40 13 -54 36 -71
26 -18 34 -19 62 -9 37 13 187 25 187 15 0 -4 -24 -35 -54 -68 -53 -61 -116
-108 -116 -88 0 6 -9 15 -20 21 -16 8 -27 7 -51 -7 -31 -18 -37 -32 -41 -93
-3 -35 -3 -35 -133 -87 -71 -29 -173 -71 -225 -94 -52 -23 -126 -55 -165 -71
-38 -17 -103 -46 -143 -65 -40 -18 -78 -31 -84 -27 -6 4 -8 3 -4 -4 3 -6 2
-13 -3 -16 -14 -9 -41 4 -41 21 0 8 5 11 10 8 6 -3 10 -1 10 5 0 6 5 8 11 5 6
-4 5 2 -2 13 -7 11 -23 25 -36 31 -26 12 -31 4 -7 -13 11 -9 13 -17 5 -36 -5
-14 -10 -18 -10 -10 -1 10 -6 7 -17 -8 -18 -26 -36 -29 -28 -4 4 10 2 13 -3 7
-4 -5 -14 -10 -20 -10 -7 0 -13 -3 -13 -7 0 -5 0 -12 0 -18 0 -5 4 -10 10 -10
5 0 7 8 4 18 -5 15 -4 15 10 -2 13 -16 18 -17 31 -6 8 7 15 8 15 3 0 -5 -35
-27 -77 -48 -43 -22 -99 -52 -124 -68 -25 -15 -113 -50 -195 -78 -81 -27 -187
-64 -234 -83 -47 -19 -139 -55 -205 -79 -66 -24 -127 -47 -135 -51 -10 -4 -19
2 -25 16 -9 20 -19 24 -95 30 -47 3 -152 20 -235 38 -82 17 -156 32 -162 32
-7 1 -13 8 -13 16 0 12 -2 12 -17 1 -13 -11 -17 -11 -20 -1 -3 6 -13 12 -23
12 -10 0 -22 5 -25 10 -10 16 -23 12 -30 -9 -5 -16 -15 -19 -66 -17 -33 1 -63
-1 -65 -4 -3 -2 -29 -6 -57 -7 -122 -4 -208 -16 -244 -35 -30 -15 -29 -23 7
-38 17 -7 31 -15 31 -19 15 -71 13 -104 -11 -203 -11 -45 -20 -113 -20 -149 0
-36 -6 -73 -12 -82 -7 -9 -38 -26 -68 -36 l-55 -19 -3 -1096 -2 -1096 1934 0
1934 0 -4 43 c-3 23 -8 85 -13 139 -10 105 -48 261 -62 253 -13 -9 -24 50 -62
334 -26 190 -34 269 -26 282 5 11 8 23 5 27 -4 7 -19 128 -19 160 0 6 -6 12
-13 12 -13 0 -19 26 -34 150 -5 41 -21 158 -36 260 -23 157 -27 215 -25 380 1
107 4 202 6 211 3 9 22 25 43 35 88 45 94 51 86 103 -13 87 -13 87 -97 -16
-43 -52 -80 -93 -82 -91 -4 4 -43 332 -69 585 -9 78 -22 171 -30 206 -44 189
-40 443 9 627 47 172 66 228 96 275 28 44 29 50 29 168 l0 122 -44 27 c-75 45
-80 60 -86 243 -3 88 -9 166 -13 173 -10 14 -106 15 -152 1z m-2255 -2146 c0
-4 -12 -40 -26 -79 l-26 -71 -109 -7 c-92 -5 -114 -4 -146 11 -32 15 -38 23
-41 54 -2 24 4 43 18 62 20 25 27 26 113 29 51 2 120 4 155 6 34 2 62 -1 62
-5z"/>
<path d="M4543 4503 c-7 -2 -13 -9 -13 -14 0 -6 5 -7 12 -3 8 5 9 2 5 -9 -4
-11 -1 -17 7 -17 16 0 25 19 18 38 -4 13 -9 14 -29 5z"/>
<path d="M4585 4501 c-3 -5 -1 -12 5 -16 5 -3 10 1 10 9 0 18 -6 21 -15 7z"/>
<path d="M3985 3941 c-6 -11 9 -23 19 -14 9 9 7 23 -3 23 -6 0 -12 -4 -16 -9z"/>
<path d="M3580 3640 c0 -78 169 -382 429 -770 l103 -155 66 -27 c36 -15 68
-25 71 -23 2 3 0 5 -6 5 -5 0 -10 14 -11 32 0 17 -8 35 -16 40 -18 10 -22 38
-5 38 5 0 7 -4 4 -10 -3 -5 -1 -10 4 -10 18 0 12 24 -9 38 -12 7 -17 18 -13
29 5 12 2 15 -10 10 -10 -4 -17 -2 -17 4 0 6 -7 9 -14 6 -10 -4 -13 -1 -10 8
6 15 -30 57 -59 68 -9 3 -17 16 -17 27 0 25 -18 57 -47 85 -13 12 -19 26 -15
30 4 5 2 5 -4 2 -7 -4 -19 4 -28 17 -8 14 -39 49 -68 78 -121 122 -256 321
-300 441 -22 61 -28 69 -28 37z"/>
<path d="M4410 3466 c0 -2 7 -6 15 -10 8 -3 15 -1 15 4 0 6 -7 10 -15 10 -8 0
-15 -2 -15 -4z"/>
<path d="M1941 3369 c5 -11 14 -17 20 -14 15 10 10 22 -11 28 -17 4 -18 2 -9
-14z"/>
<path d="M1946 3303 c3 -21 11 -43 16 -50 5 -7 7 -21 3 -32 -3 -10 -1 -22 5
-26 5 -3 10 -16 10 -29 0 -13 6 -23 15 -23 9 0 15 10 15 24 0 13 5 23 10 23 6
0 10 5 10 11 0 5 -4 8 -9 4 -5 -3 -11 0 -14 7 -2 7 -3 5 -2 -4 2 -10 -1 -18
-5 -18 -26 0 -17 60 9 60 14 1 13 3 -3 15 -10 8 -23 12 -28 9 -4 -3 -11 9 -14
26 -10 46 -27 49 -18 3z"/>
<path d="M2020 3144 c0 -14 4 -23 9 -20 5 3 7 15 4 26 -7 28 -13 25 -13 -6z"/>
<path d="M1995 3111 c-3 -5 -1 -12 5 -16 5 -3 10 1 10 9 0 18 -6 21 -15 7z"/>
<path d="M2063 3099 c-1 -12 3 -16 13 -12 18 6 18 19 1 26 -7 3 -13 -3 -14
-14z"/>
<path d="M2064 3066 c-14 -11 -16 -17 -7 -26 8 -9 14 -7 23 10 15 28 9 34 -16
16z"/>
<path d="M4495 3050 c-3 -5 -1 -10 4 -10 6 0 11 5 11 10 0 6 -2 10 -4 10 -3 0
-8 -4 -11 -10z"/>
<path d="M557 2913 c-11 -10 -8 -51 3 -58 6 -3 10 0 10 7 0 11 2 10 9 0 7 -11
9 -11 14 1 13 34 -14 72 -36 50z"/>
<path d="M620 2903 c-13 -15 -12 -16 4 -10 10 4 25 2 32 -4 18 -15 18 -2 0 17
-18 17 -18 17 -36 -3z"/>
<path d="M4178 2909 c-26 -15 -22 -30 5 -20 12 4 28 6 35 4 6 -3 12 2 12 11 0
18 -26 21 -52 5z"/>
<path d="M4256 2855 c4 -8 8 -15 10 -15 2 0 4 7 4 15 0 8 -4 15 -10 15 -5 0
-7 -7 -4 -15z"/>
<path d="M4290 2780 c0 -5 5 -10 10 -10 6 0 10 5 10 10 0 6 -4 10 -10 10 -5 0
-10 -4 -10 -10z"/>
<path d="M4285 2718 c-9 -14 -11 -24 -5 -26 5 -2 10 -12 10 -23 0 -12 5 -16
15 -13 13 5 14 2 6 -19 -8 -20 -6 -27 5 -31 23 -9 27 -7 20 9 -3 10 1 15 11
15 13 0 12 5 -7 25 -20 22 -22 29 -12 45 10 16 9 21 -8 30 -15 8 -22 6 -35
-12z m17 -10 c-7 -7 -12 -8 -12 -2 0 6 3 14 7 17 3 4 9 5 12 2 2 -3 -1 -11 -7
-17z"/>
<path d="M5260 2670 c-7 -17 -20 -36 -29 -43 -20 -15 -44 -67 -31 -67 5 0 34
24 64 54 53 51 68 76 47 76 -5 0 -16 2 -24 6 -9 3 -19 -6 -27 -26z"/>
<path d="M5305 2623 c-10 -27 -27 -61 -38 -77 -11 -15 -21 -38 -23 -50 -2 -11
-5 -35 -8 -53 -5 -32 -20 -64 -45 -96 -15 -18 -10 -29 15 -33 10 -2 13 3 9 15
-3 11 2 24 12 32 15 12 16 12 10 -3 -3 -10 -2 -18 3 -18 6 0 10 4 10 9 0 8 51
98 68 121 2 3 12 -5 22 -17 9 -12 20 -19 24 -16 3 4 6 1 6 -5 0 -7 6 -12 14
-12 23 0 29 -18 31 -96 1 -41 4 -76 7 -79 3 -4 14 18 24 47 10 30 31 67 51 85
l33 33 -54 92 c-57 99 -114 168 -139 168 -8 0 -22 -21 -32 -47z"/>
<path d="M3805 2623 c-36 -39 -42 -53 -25 -53 6 0 10 -8 10 -18 0 -9 18 -28
40 -42 22 -14 40 -28 40 -32 0 -5 14 -8 31 -8 23 0 30 4 26 14 -3 8 -1 17 6
20 9 3 9 5 0 5 -7 1 -13 7 -13 14 0 8 -9 24 -20 37 -11 12 -17 26 -15 30 3 4
-2 10 -10 14 -8 3 -15 14 -15 25 0 35 -19 33 -55 -6z"/>
<path d="M4350 2599 c0 -9 7 -22 15 -29 19 -16 19 0 0 26 -12 16 -14 16 -15 3z"/>
<path d="M4480 2378 c0 -24 34 -91 94 -182 43 -66 79 -136 92 -175 l20 -66 18
33 c16 31 14 72 -3 72 -4 0 -19 32 -32 72 -18 53 -31 76 -51 87 -15 9 -32 25
-37 36 -23 43 -101 139 -101 123z"/>
<path d="M3648 1494 c-6 -5 1 -76 8 -83 2 -2 4 17 4 42 0 47 -2 52 -12 41z"/>
</g>
</svg>
